<svg xmlns="http://www.w3.org/2000/svg" viewBox="0 0 512 512" width="512" height="512">
  <defs>
    <!-- Brand Signature Gradient: Indigo to Violet with deep nocturnal base -->
    <linearGradient id="brandBg" x1="15%" y1="95%" x2="85%" y2="5%">
      <stop offset="0%" stop-color="#312e81" />
      <stop offset="35%" stop-color="#4338ca" />
      <stop offset="70%" stop-color="#4f46e5" />
      <stop offset="100%" stop-color="#7c3aed" />
    </linearGradient>

    <!-- Top-Right Luminous Violet Glow -->
    <radialGradient id="topVioletGlow" cx="78%" cy="16%" r="62%">
      <stop offset="0%" stop-color="#c084fc" stop-opacity="0.45" />
      <stop offset="55%" stop-color="#7c3aed" stop-opacity="0.15" />
      <stop offset="100%" stop-color="#312e81" stop-opacity="0" />
    </radialGradient>

    <!-- Center Radiant Backlight behind AI Sparkle -->
    <radialGradient id="centerBacklight" cx="50%" cy="56%" r="38%">
      <stop offset="0%" stop-color="#818cf8" stop-opacity="0.35" />
      <stop offset="100%" stop-color="#4f46e5" stop-opacity="0" />
    </radialGradient>

    <!-- 1px Precision Specular Glass Rim -->
    <linearGradient id="specularRim" x1="0%" y1="0%" x2="0%" y2="100%">
      <stop offset="0%" stop-color="#ffffff" stop-opacity="0.45" />
      <stop offset="20%" stop-color="#ffffff" stop-opacity="0.12" />
      <stop offset="100%" stop-color="#ffffff" stop-opacity="0.02" />
    </linearGradient>

    <!-- Hanger Shading -->
    <linearGradient id="hangerStroke" x1="0%" y1="0%" x2="100%" y2="100%">
      <stop offset="0%" stop-color="#ffffff" />
      <stop offset="100%" stop-color="#f8fafc" />
    </linearGradient>

    <!-- AI Sparkle Soft Bloom -->
    <filter id="aiStarGlow" x="-30%" y="-30%" width="160%" height="160%">
      <feGaussianBlur stdDeviation="6" result="blur" />
      <feMerge>
        <feMergeNode in="blur" />
        <feMergeNode in="SourceGraphic" />
      </feMerge>
    </filter>
  </defs>

  <!-- Squircle Base Canvas (Standard 22.5% radius) -->
  <rect width="512" height="512" rx="116" fill="url(#brandBg)" />
  <rect width="512" height="512" rx="116" fill="url(#topVioletGlow)" />
  <rect width="512" height="512" rx="116" fill="url(#centerBacklight)" />
  <rect x="1.5" y="1.5" width="509" height="509" rx="114.5" fill="none" stroke="url(#specularRim)" stroke-width="2.5" />

  <!-- Hanger Emblem -->
  <!-- 1. The Hook: seamless bezier loop with neck into apex -->
  <path
    d="M 230 148 C 220 138 218 122 226 110 C 234 98 246 90 260 90 C 278 90 294 104 294 122 C 294 138 282 152 266 162 C 258 167 256 174 256 184 L 256 206"
    fill="none"
    stroke="url(#hangerStroke)"
    stroke-width="28"
    stroke-linecap="round"
    stroke-linejoin="round"
  />

  <!-- 2. The Shoulders & Crossbar: wide grounded stance (width 360px) -->
  <path
    d="M 256 206 L 76 338 C 64 348 72 368 88 368 L 424 368 C 440 368 448 348 436 338 Z"
    fill="none"
    stroke="url(#hangerStroke)"
    stroke-width="28"
    stroke-linecap="round"
    stroke-linejoin="round"
  />

  <!-- 3. AI Stylist Sparkle Star (Centered inside hanger triangle) -->
  <path
    d="M 256 248 Q 256 284 292 284 Q 256 284 256 320 Q 256 284 220 284 Q 256 284 256 248 Z"
    fill="#ffffff"
    filter="url(#aiStarGlow)"
  />
</svg>